<svg xmlns="http://www.w3.org/2000/svg" width="128" height="128" viewBox="0 0 128 128">
  <defs>
    <style>
      .cls-1, .cls-2 {
        fill: none;
        stroke-width: 3px;
        fill-rule: evenodd;
      }

      .cls-1 {
        stroke: #000;
        opacity: 0.5;
      }

      .cls-2 {
        stroke: #fff;
      }
    </style>
  </defs>
  <path class="cls-1" d="M64,3A61,61,0,1,1,3,64,61,61,0,0,1,64,3Zm0,0A61,61,0,1,1,3,64,61,61,0,0,1,64,3Z"/>
  <path class="cls-2" d="M64,2A62,62,0,1,1,2,64,62,62,0,0,1,64,2Zm0,0A62,62,0,1,1,2,64,62,62,0,0,1,64,2Z"/>
</svg>
