<svg version="1.2" xmlns="http://www.w3.org/2000/svg" viewBox="0 0 24 24" width="24" height="24">
	<title>FunctionInputParameter</title>
	<style>
		.s0 { fill: #ffffff } 
	</style>
	<path class="s0" d="m12.7 8.3c0.2-1.8 0.9-3.6 2-5.1 0 0 0 0.1 0 0.1 0 0.5 0.2 0.9 0.5 1.3 0.4 0.3 0.8 0.5 1.3 0.5 0.4 0 0.9-0.2 1.2-0.5 0.3-0.4 0.5-0.8 0.5-1.3q0-0.5-0.2-0.9-0.3-0.4-0.7-0.6h-0.2c-0.8-0.3-1.7-0.3-2.6 0-2.7 0.8-3.8 4.7-3.8 4.7l-0.3 0.2h-5l-0.4 1.7h5.2l-1.7 8.9c-0.2 1-0.8 2-1.5 2.7-0.8 0.7-1.7 1.1-2.8 1.3q0.2-0.3 0.2-0.7c0-0.5-0.2-0.9-0.5-1.3-0.4-0.3-0.8-0.5-1.3-0.5-0.5 0-1 0.2-1.3 0.5-0.3 0.4-0.5 0.8-0.5 1.3 0 0.4 0.1 0.8 0.4 1.1 0.3 0.3 0.7 0.5 1.1 0.6 7.3 1.4 8.4-4.9 8.4-4.9l1.7-7.4h5l0.4-1.7h-5.3z"/>
	<path class="s0" d="m13.5 17v-3h4.5v-3l5.3 4.5-5.3 4.5v-3z"/>
</svg>